<mxfile host="app.diagrams.net" agent="Mozilla/5.0 (Windows NT 10.0; Win64; x64) AppleWebKit/537.36 (KHTML, like Gecko) Chrome/126.0.0.0 Safari/537.36 OPR/112.0.0.0" version="24.7.14">
  <diagram name="Page-1" id="MGTL4SqXhVr9py7_dkD0">
    <mxGraphModel dx="2271" dy="1163" grid="1" gridSize="10" guides="1" tooltips="1" connect="1" arrows="1" fold="1" page="1" pageScale="1" pageWidth="850" pageHeight="1100" math="0" shadow="0">
      <root>
        <mxCell id="0" />
        <mxCell id="1" parent="0" />
        <mxCell id="7ZzRJMPZyLKNkAGucIDs-3" value="" style="edgeStyle=orthogonalEdgeStyle;rounded=0;orthogonalLoop=1;jettySize=auto;html=1;" edge="1" parent="1" source="7ZzRJMPZyLKNkAGucIDs-1" target="7ZzRJMPZyLKNkAGucIDs-2">
          <mxGeometry relative="1" as="geometry" />
        </mxCell>
        <mxCell id="7ZzRJMPZyLKNkAGucIDs-1" value="START" style="ellipse;whiteSpace=wrap;html=1;" vertex="1" parent="1">
          <mxGeometry x="360" y="40" width="120" height="80" as="geometry" />
        </mxCell>
        <mxCell id="7ZzRJMPZyLKNkAGucIDs-5" value="" style="edgeStyle=orthogonalEdgeStyle;rounded=0;orthogonalLoop=1;jettySize=auto;html=1;" edge="1" parent="1" source="7ZzRJMPZyLKNkAGucIDs-2" target="7ZzRJMPZyLKNkAGucIDs-4">
          <mxGeometry relative="1" as="geometry" />
        </mxCell>
        <mxCell id="7ZzRJMPZyLKNkAGucIDs-2" value="INPUT wordFind" style="whiteSpace=wrap;html=1;" vertex="1" parent="1">
          <mxGeometry x="360" y="160" width="120" height="60" as="geometry" />
        </mxCell>
        <mxCell id="7ZzRJMPZyLKNkAGucIDs-7" value="" style="edgeStyle=orthogonalEdgeStyle;rounded=0;orthogonalLoop=1;jettySize=auto;html=1;" edge="1" parent="1" source="7ZzRJMPZyLKNkAGucIDs-4" target="7ZzRJMPZyLKNkAGucIDs-6">
          <mxGeometry relative="1" as="geometry" />
        </mxCell>
        <mxCell id="7ZzRJMPZyLKNkAGucIDs-4" value="random = randomly flip to a word" style="whiteSpace=wrap;html=1;" vertex="1" parent="1">
          <mxGeometry x="360" y="260" width="120" height="60" as="geometry" />
        </mxCell>
        <mxCell id="7ZzRJMPZyLKNkAGucIDs-10" value="" style="edgeStyle=orthogonalEdgeStyle;rounded=0;orthogonalLoop=1;jettySize=auto;html=1;" edge="1" parent="1" source="7ZzRJMPZyLKNkAGucIDs-6" target="7ZzRJMPZyLKNkAGucIDs-8">
          <mxGeometry relative="1" as="geometry" />
        </mxCell>
        <mxCell id="7ZzRJMPZyLKNkAGucIDs-13" value="" style="edgeStyle=orthogonalEdgeStyle;rounded=0;orthogonalLoop=1;jettySize=auto;html=1;" edge="1" parent="1" source="7ZzRJMPZyLKNkAGucIDs-6" target="7ZzRJMPZyLKNkAGucIDs-12">
          <mxGeometry relative="1" as="geometry" />
        </mxCell>
        <mxCell id="7ZzRJMPZyLKNkAGucIDs-6" value="IF random == wordFind" style="rhombus;whiteSpace=wrap;html=1;" vertex="1" parent="1">
          <mxGeometry x="360" y="360" width="120" height="80" as="geometry" />
        </mxCell>
        <mxCell id="7ZzRJMPZyLKNkAGucIDs-11" value="" style="edgeStyle=orthogonalEdgeStyle;rounded=0;orthogonalLoop=1;jettySize=auto;html=1;" edge="1" parent="1" source="7ZzRJMPZyLKNkAGucIDs-8" target="7ZzRJMPZyLKNkAGucIDs-9">
          <mxGeometry relative="1" as="geometry" />
        </mxCell>
        <mxCell id="7ZzRJMPZyLKNkAGucIDs-8" value="OUTPUT &quot;Well aren&#39;t you lucky&quot;" style="shape=parallelogram;perimeter=parallelogramPerimeter;whiteSpace=wrap;html=1;fixedSize=1;" vertex="1" parent="1">
          <mxGeometry x="540" y="370" width="120" height="60" as="geometry" />
        </mxCell>
        <mxCell id="7ZzRJMPZyLKNkAGucIDs-9" value="END" style="ellipse;whiteSpace=wrap;html=1;" vertex="1" parent="1">
          <mxGeometry x="720" y="360" width="120" height="80" as="geometry" />
        </mxCell>
        <mxCell id="7ZzRJMPZyLKNkAGucIDs-24" value="" style="edgeStyle=orthogonalEdgeStyle;rounded=0;orthogonalLoop=1;jettySize=auto;html=1;" edge="1" parent="1" source="7ZzRJMPZyLKNkAGucIDs-12" target="7ZzRJMPZyLKNkAGucIDs-22">
          <mxGeometry relative="1" as="geometry" />
        </mxCell>
        <mxCell id="7ZzRJMPZyLKNkAGucIDs-12" value="WHILE random != wordFind" style="rhombus;whiteSpace=wrap;html=1;" vertex="1" parent="1">
          <mxGeometry x="360" y="480" width="120" height="80" as="geometry" />
        </mxCell>
        <mxCell id="7ZzRJMPZyLKNkAGucIDs-17" value="TRUE" style="text;html=1;align=center;verticalAlign=middle;whiteSpace=wrap;rounded=0;" vertex="1" parent="1">
          <mxGeometry x="480" y="380" width="60" height="30" as="geometry" />
        </mxCell>
        <mxCell id="7ZzRJMPZyLKNkAGucIDs-20" value="FALSE" style="text;html=1;align=center;verticalAlign=middle;whiteSpace=wrap;rounded=0;" vertex="1" parent="1">
          <mxGeometry x="410" y="440" width="60" height="30" as="geometry" />
        </mxCell>
        <mxCell id="7ZzRJMPZyLKNkAGucIDs-25" value="" style="edgeStyle=orthogonalEdgeStyle;rounded=0;orthogonalLoop=1;jettySize=auto;html=1;" edge="1" parent="1" source="7ZzRJMPZyLKNkAGucIDs-22" target="7ZzRJMPZyLKNkAGucIDs-23">
          <mxGeometry relative="1" as="geometry" />
        </mxCell>
        <mxCell id="7ZzRJMPZyLKNkAGucIDs-22" value="IF random is before wordFind" style="rhombus;whiteSpace=wrap;html=1;" vertex="1" parent="1">
          <mxGeometry x="360" y="600" width="120" height="80" as="geometry" />
        </mxCell>
        <mxCell id="7ZzRJMPZyLKNkAGucIDs-30" style="edgeStyle=orthogonalEdgeStyle;rounded=0;orthogonalLoop=1;jettySize=auto;html=1;exitX=0;exitY=0.5;exitDx=0;exitDy=0;entryX=1;entryY=0.5;entryDx=0;entryDy=0;" edge="1" parent="1" source="7ZzRJMPZyLKNkAGucIDs-23" target="7ZzRJMPZyLKNkAGucIDs-28">
          <mxGeometry relative="1" as="geometry" />
        </mxCell>
        <mxCell id="7ZzRJMPZyLKNkAGucIDs-38" value="" style="edgeStyle=orthogonalEdgeStyle;rounded=0;orthogonalLoop=1;jettySize=auto;html=1;" edge="1" parent="1" source="7ZzRJMPZyLKNkAGucIDs-23" target="7ZzRJMPZyLKNkAGucIDs-37">
          <mxGeometry relative="1" as="geometry" />
        </mxCell>
        <mxCell id="7ZzRJMPZyLKNkAGucIDs-23" value="IF random is after wordFind" style="rhombus;whiteSpace=wrap;html=1;" vertex="1" parent="1">
          <mxGeometry x="360" y="720" width="120" height="80" as="geometry" />
        </mxCell>
        <mxCell id="7ZzRJMPZyLKNkAGucIDs-26" value="TRUE" style="text;html=1;align=center;verticalAlign=middle;whiteSpace=wrap;rounded=0;" vertex="1" parent="1">
          <mxGeometry x="300" y="740" width="60" height="30" as="geometry" />
        </mxCell>
        <mxCell id="7ZzRJMPZyLKNkAGucIDs-28" value="random = randomly flip backward, but not further than you&#39;ve ever flipped forward" style="rounded=0;whiteSpace=wrap;html=1;" vertex="1" parent="1">
          <mxGeometry x="180" y="730" width="120" height="60" as="geometry" />
        </mxCell>
        <mxCell id="7ZzRJMPZyLKNkAGucIDs-31" style="edgeStyle=orthogonalEdgeStyle;rounded=0;orthogonalLoop=1;jettySize=auto;html=1;exitX=0;exitY=0.5;exitDx=0;exitDy=0;entryX=1;entryY=0.5;entryDx=0;entryDy=0;" edge="1" parent="1" target="7ZzRJMPZyLKNkAGucIDs-33">
          <mxGeometry relative="1" as="geometry">
            <mxPoint x="360" y="640" as="sourcePoint" />
          </mxGeometry>
        </mxCell>
        <mxCell id="7ZzRJMPZyLKNkAGucIDs-32" value="TRUE" style="text;html=1;align=center;verticalAlign=middle;whiteSpace=wrap;rounded=0;" vertex="1" parent="1">
          <mxGeometry x="300" y="620" width="60" height="30" as="geometry" />
        </mxCell>
        <mxCell id="7ZzRJMPZyLKNkAGucIDs-33" value="random = randomly flip forward, but not further than you&#39;ve ever flipped backward" style="rounded=0;whiteSpace=wrap;html=1;" vertex="1" parent="1">
          <mxGeometry x="180" y="610" width="120" height="60" as="geometry" />
        </mxCell>
        <mxCell id="7ZzRJMPZyLKNkAGucIDs-34" value="FALSE" style="text;html=1;align=center;verticalAlign=middle;whiteSpace=wrap;rounded=0;" vertex="1" parent="1">
          <mxGeometry x="410" y="800" width="60" height="30" as="geometry" />
        </mxCell>
        <mxCell id="7ZzRJMPZyLKNkAGucIDs-35" value="FALSE" style="text;html=1;align=center;verticalAlign=middle;whiteSpace=wrap;rounded=0;" vertex="1" parent="1">
          <mxGeometry x="410" y="680" width="60" height="30" as="geometry" />
        </mxCell>
        <mxCell id="7ZzRJMPZyLKNkAGucIDs-40" value="" style="edgeStyle=orthogonalEdgeStyle;rounded=0;orthogonalLoop=1;jettySize=auto;html=1;" edge="1" parent="1" source="7ZzRJMPZyLKNkAGucIDs-37" target="7ZzRJMPZyLKNkAGucIDs-39">
          <mxGeometry relative="1" as="geometry" />
        </mxCell>
        <mxCell id="7ZzRJMPZyLKNkAGucIDs-37" value="OUTPUT &quot;Congrats, you found it!&quot;" style="shape=parallelogram;perimeter=parallelogramPerimeter;whiteSpace=wrap;html=1;fixedSize=1;" vertex="1" parent="1">
          <mxGeometry x="360" y="840" width="120" height="60" as="geometry" />
        </mxCell>
        <mxCell id="7ZzRJMPZyLKNkAGucIDs-39" value="END" style="ellipse;whiteSpace=wrap;html=1;" vertex="1" parent="1">
          <mxGeometry x="360" y="940" width="120" height="80" as="geometry" />
        </mxCell>
        <mxCell id="7ZzRJMPZyLKNkAGucIDs-42" value="" style="endArrow=classic;html=1;rounded=0;exitX=0;exitY=0.5;exitDx=0;exitDy=0;" edge="1" parent="1" source="7ZzRJMPZyLKNkAGucIDs-28">
          <mxGeometry width="50" height="50" relative="1" as="geometry">
            <mxPoint x="630" y="580" as="sourcePoint" />
            <mxPoint x="80" y="760" as="targetPoint" />
            <Array as="points" />
          </mxGeometry>
        </mxCell>
        <mxCell id="7ZzRJMPZyLKNkAGucIDs-43" value="" style="endArrow=classic;html=1;rounded=0;exitX=0;exitY=0.5;exitDx=0;exitDy=0;" edge="1" parent="1" source="7ZzRJMPZyLKNkAGucIDs-28">
          <mxGeometry width="50" height="50" relative="1" as="geometry">
            <mxPoint x="180" y="760" as="sourcePoint" />
            <mxPoint x="80" y="760" as="targetPoint" />
            <Array as="points" />
          </mxGeometry>
        </mxCell>
        <mxCell id="7ZzRJMPZyLKNkAGucIDs-44" value="" style="endArrow=classic;html=1;rounded=0;" edge="1" parent="1">
          <mxGeometry width="50" height="50" relative="1" as="geometry">
            <mxPoint x="80" y="760" as="sourcePoint" />
            <mxPoint x="80" y="580" as="targetPoint" />
            <Array as="points" />
          </mxGeometry>
        </mxCell>
        <mxCell id="7ZzRJMPZyLKNkAGucIDs-45" value="" style="endArrow=classic;html=1;rounded=0;exitX=0;exitY=0.5;exitDx=0;exitDy=0;" edge="1" parent="1">
          <mxGeometry width="50" height="50" relative="1" as="geometry">
            <mxPoint x="180" y="639.5" as="sourcePoint" />
            <mxPoint x="80" y="639.5" as="targetPoint" />
            <Array as="points" />
          </mxGeometry>
        </mxCell>
        <mxCell id="7ZzRJMPZyLKNkAGucIDs-46" value="" style="endArrow=classic;html=1;rounded=0;" edge="1" parent="1">
          <mxGeometry width="50" height="50" relative="1" as="geometry">
            <mxPoint x="80" y="580" as="sourcePoint" />
            <mxPoint x="420" y="580" as="targetPoint" />
            <Array as="points" />
          </mxGeometry>
        </mxCell>
      </root>
    </mxGraphModel>
  </diagram>
</mxfile>
